<?xml version="1.0" standalone="no"?>
<!DOCTYPE svg PUBLIC "-//W3C//DTD SVG 20010904//EN"
 "http://www.w3.org/TR/2001/REC-SVG-20010904/DTD/svg10.dtd">
<svg version="1.0" xmlns="http://www.w3.org/2000/svg"
 width="500.000000pt" height="500.000000pt" viewBox="0 0 500.000000 500.000000"
 preserveAspectRatio="xMidYMid meet">
<metadata>
Created by potrace 1.16, written by Peter Selinger 2001-2019
</metadata>
<g transform="translate(0.000000,500.000000) scale(0.100000,-0.100000)"
fill="#fff" stroke="none">
<path d="M2143 4565 c-109 -30 -165 -74 -202 -155 -22 -48 -27 -124 -12 -176
l9 -31 -60 -11 c-82 -15 -152 -50 -225 -110 -49 -41 -69 -66 -94 -122 -30 -64
-36 -70 -68 -76 -75 -13 -133 -34 -241 -90 -90 -45 -127 -72 -190 -133 -83
-81 -115 -133 -149 -245 -22 -73 -28 -187 -12 -243 8 -28 4 -42 -26 -101 -26
-52 -36 -86 -41 -138 -5 -64 -8 -73 -49 -119 -25 -28 -58 -81 -74 -119 -32
-74 -54 -193 -45 -232 5 -18 -2 -33 -29 -62 -44 -50 -92 -151 -106 -227 -18
-95 -6 -237 27 -320 15 -38 26 -85 26 -102 -8 -190 -4 -261 15 -321 47 -141
152 -275 268 -343 l60 -35 7 -62 c8 -73 60 -179 116 -238 39 -40 147 -104 176
-104 9 0 57 -38 107 -85 152 -142 306 -204 508 -205 165 0 281 44 393 152 l67
65 63 -61 c112 -109 234 -156 403 -156 193 0 342 60 484 196 61 58 102 88 138
102 148 56 251 187 269 345 6 52 7 53 63 82 79 41 177 144 228 242 59 110 77
193 68 313 -10 141 -10 139 20 215 33 83 45 243 26 336 -15 71 -60 165 -100
212 -28 32 -32 44 -36 109 -7 120 -56 240 -128 308 -41 40 -42 42 -42 106 l0
66 35 -8 c19 -5 85 -9 145 -9 105 0 114 2 183 34 89 42 136 91 188 195 34 70
39 88 42 171 5 114 -8 176 -56 273 -48 96 -140 184 -239 227 -68 30 -69 30
-253 30 -171 0 -189 -2 -233 -22 l-49 -23 -91 85 c-51 46 -120 106 -154 132
-34 26 -119 94 -190 149 -198 156 -291 212 -441 266 -216 77 -394 103 -499 73z
m332 -119 c100 -27 231 -82 303 -126 26 -16 63 -38 82 -49 19 -11 67 -45 105
-76 39 -30 103 -80 143 -111 40 -31 111 -88 156 -127 46 -40 100 -86 122 -104
l39 -31 -57 -27 -57 -26 -88 46 c-48 25 -117 52 -153 61 l-66 16 -18 51 c-21
59 -112 157 -186 200 -144 84 -330 68 -449 -39 l-50 -45 -38 34 c-48 43 -116
82 -172 98 -52 15 -71 50 -71 128 0 42 5 56 31 86 57 64 96 76 234 70 62 -3
134 -14 190 -29z m-358 -454 c82 -53 87 -71 91 -324 l3 -217 -38 -19 c-21 -11
-67 -26 -101 -32 l-63 -13 32 -19 c18 -11 63 -31 101 -45 l68 -25 0 -148 c0
-113 -3 -149 -13 -153 -8 -3 -83 -6 -168 -6 -174 -2 -192 -8 -208 -68 -5 -21
-15 -113 -21 -205 -5 -92 -13 -174 -16 -183 -8 -21 -30 -14 -123 38 -77 44
-131 106 -131 153 0 81 -32 118 -77 89 -24 -16 -25 -21 -19 -74 13 -108 15
-102 -31 -120 -78 -31 -168 -141 -161 -198 2 -23 8 -29 35 -31 28 -3 35 2 64
45 17 26 37 53 44 58 7 6 56 12 109 13 85 2 101 0 146 -23 30 -15 65 -45 90
-76 39 -49 40 -53 40 -127 0 -141 42 -170 226 -158 56 4 127 3 158 0 l56 -7 0
-328 0 -327 -37 -30 c-80 -63 -120 -77 -218 -77 -56 0 -103 5 -125 15 -76 31
-139 81 -183 142 -41 59 -87 164 -87 200 0 20 -65 78 -88 78 -10 0 -61 13
-113 30 -119 37 -181 82 -215 154 -41 87 -38 91 64 91 101 1 154 20 221 81 70
62 94 141 52 164 -28 14 -49 3 -70 -39 -39 -74 -104 -111 -199 -111 -86 0
-146 24 -190 76 -54 65 -92 58 -92 -16 0 -20 13 -41 43 -72 38 -38 44 -50 50
-101 14 -116 98 -230 202 -277 33 -15 99 -37 146 -50 l87 -22 7 -57 c22 -180
132 -307 311 -362 73 -22 77 -25 95 -66 15 -34 23 -43 43 -43 27 0 46 25 46
58 0 16 10 20 58 25 61 7 145 37 175 64 16 15 17 5 17 -211 0 -254 -3 -267
-67 -331 -98 -100 -284 -147 -445 -114 -125 26 -294 134 -346 223 -17 28 -17
34 -4 54 20 31 8 72 -21 72 -12 0 -28 -4 -36 -9 -33 -21 -142 42 -192 112 -40
55 -38 67 10 67 29 0 44 6 55 21 25 36 -2 75 -70 101 -86 34 -138 73 -171 127
-55 92 -67 218 -22 242 12 6 19 21 19 39 0 24 -10 37 -53 69 -57 43 -82 73
-118 141 -21 40 -24 58 -24 155 0 103 2 113 30 164 16 29 51 72 77 95 l48 42
-15 37 c-19 47 -19 157 0 204 22 53 61 100 106 130 l38 25 30 -25 c46 -38 114
-61 140 -48 40 22 27 55 -37 92 -95 56 -127 152 -81 246 11 24 32 51 45 62
l24 19 -28 48 c-23 41 -27 61 -27 124 0 65 5 85 33 142 40 81 111 149 188 177
30 12 61 21 70 21 8 0 23 15 34 33 33 54 83 81 160 85 58 4 76 0 121 -23 30
-14 64 -36 77 -47 l22 -21 0 29 c0 37 -31 103 -58 128 -12 10 -19 23 -16 27 3
5 -1 6 -9 3 -47 -18 -11 63 50 113 67 55 131 74 234 70 77 -3 91 -6 136 -35z
m578 27 c59 -17 109 -57 146 -117 l32 -54 -25 -21 c-30 -25 -62 -86 -71 -134
-7 -36 3 -42 24 -17 30 37 93 66 150 71 50 5 67 2 115 -22 l57 -28 -24 -18
c-13 -10 -44 -26 -69 -35 -195 -73 -292 -169 -331 -324 l-17 -65 -20 65 c-10
36 -23 112 -26 170 -14 206 -47 286 -161 383 -30 27 -55 54 -55 62 0 19 61 64
107 81 47 16 115 17 168 3z m1318 -227 c75 -35 164 -117 196 -180 56 -110 66
-258 23 -355 -23 -52 -89 -127 -138 -158 -35 -21 -94 -42 -94 -32 0 3 15 22
34 43 54 60 79 138 80 250 1 84 -3 104 -29 170 -46 114 -128 186 -247 216 -86
22 -130 14 -255 -44 -59 -28 -147 -67 -194 -86 -47 -19 -114 -48 -150 -64 -35
-16 -108 -49 -161 -72 -57 -24 -98 -48 -98 -56 0 -8 2 -14 4 -14 9 0 176 70
321 135 88 40 162 71 164 69 2 -2 -3 -14 -11 -26 -28 -43 -51 -132 -51 -197
-1 -78 22 -153 64 -211 17 -23 29 -43 27 -45 -5 -4 -266 -115 -272 -115 -2 0
-69 -27 -148 -61 -78 -33 -185 -78 -235 -100 l-93 -39 -298 0 c-165 0 -353 -3
-419 -6 l-119 -7 -12 -196 c-7 -108 -15 -229 -19 -268 l-6 -73 670 0 670 0 7
92 c3 50 6 128 6 173 0 45 3 123 6 172 l7 90 33 -33 c18 -19 38 -34 45 -34 11
0 10 -92 -4 -507 0 -9 -11 -6 -32 7 -41 26 -53 25 -30 0 18 -20 17 -20 -684
-20 -658 0 -702 1 -708 17 -6 16 33 663 41 670 1 2 191 7 422 13 230 5 461 12
512 16 l94 6 -29 18 c-107 65 -153 241 -102 393 35 107 90 147 360 266 65 28
119 51 122 51 3 0 84 35 179 79 95 43 180 81 188 85 8 3 78 4 155 3 134 -3
144 -5 208 -35z m-1545 -52 c46 -50 64 -108 70 -224 l5 -109 -49 8 c-27 4 -61
13 -76 21 l-28 15 0 181 0 181 28 -23 c15 -14 37 -36 50 -50z m1374 -90 c53
-15 131 -90 158 -152 30 -71 36 -151 17 -219 -25 -84 -107 -169 -165 -169 -44
0 -126 34 -175 73 -29 23 -74 53 -101 67 -88 46 -116 103 -82 169 27 51 113
176 137 197 46 41 134 55 211 34z m-1269 -360 c13 -46 29 -73 67 -112 34 -35
55 -69 69 -109 10 -31 17 -60 13 -63 -3 -3 -79 -6 -169 -6 l-163 0 0 153 0
152 73 21 c39 12 77 22 82 23 6 0 18 -26 28 -59z m1028 -262 c32 -13 59 -26
59 -29 0 -20 -50 -63 -108 -91 -63 -31 -72 -33 -172 -32 -72 0 -116 5 -140 16
l-35 16 50 23 c49 22 276 117 284 118 2 1 30 -9 62 -21z m-856 -263 l0 -30
-197 -3 -198 -2 0 35 0 35 198 -2 197 -3 0 -30z m751 -65 c37 0 103 -41 133
-81 21 -28 24 -45 25 -112 l1 -78 45 -40 c144 -127 173 -178 174 -314 0 -108
-28 -180 -98 -249 -29 -28 -64 -59 -79 -69 -32 -22 -35 -52 -6 -83 16 -17 21
-36 21 -85 2 -116 -54 -200 -173 -263 -89 -47 -119 -72 -119 -102 0 -33 24
-47 70 -40 30 5 40 3 40 -7 0 -23 -56 -103 -88 -125 -49 -36 -124 -64 -136
-52 -17 17 -55 11 -66 -10 -8 -16 -7 -27 6 -49 17 -29 17 -30 -14 -78 -40 -61
-96 -107 -182 -149 -168 -81 -331 -86 -485 -13 -69 33 -150 114 -164 164 -6
23 -11 130 -11 252 l0 212 48 -27 c52 -32 122 -52 176 -52 31 0 36 -3 36 -24
0 -45 50 -72 78 -44 7 7 12 20 12 29 0 29 25 46 107 73 104 35 163 77 211 151
46 69 69 132 78 209 l6 54 92 27 c140 43 187 67 233 119 50 57 82 122 93 193
8 46 16 60 60 103 53 52 64 87 37 124 -18 25 -47 14 -72 -27 -23 -36 -80 -67
-139 -75 l-39 -5 7 194 c3 107 9 233 13 281 5 80 7 86 24 78 10 -6 30 -10 45
-10z m-1311 -45 c0 -39 1 -40 33 -37 41 4 46 -8 35 -95 l-8 -68 -33 0 c-29 0
-32 -3 -32 -30 0 -50 -10 -56 -86 -53 l-69 3 3 38 c3 35 2 37 -26 37 -17 0
-32 4 -34 10 -1 5 -2 41 0 80 l4 70 34 0 c33 0 34 1 34 38 0 21 3 42 7 46 4 4
37 6 73 4 l65 -3 0 -40z m555 10 c0 -45 -5 -46 -220 -43 -175 3 -175 3 -178
26 -8 52 -7 52 203 52 l195 0 0 -35z m0 -99 c0 -18 -6 -39 -14 -45 -9 -8 -70
-11 -197 -9 l-184 3 -3 43 -3 42 200 0 201 0 0 -34z m380 -102 c0 -103 4 -100
-157 -102 -76 -1 -144 2 -152 7 -11 7 -12 25 -6 85 l7 76 154 0 154 0 0 -66z
m-394 18 c8 -4 10 -26 7 -59 l-6 -53 -76 -1 c-86 -1 -302 -1 -313 0 -10 1 -11
105 -1 114 9 9 375 9 389 -1z m2 -159 c-3 -16 -22 -18 -201 -21 -192 -2 -197
-2 -197 18 0 19 6 20 201 20 186 0 200 -1 197 -17z m528 -229 c42 -20 76 -29
134 -32 l77 -4 -7 -32 c-17 -74 -62 -131 -134 -168 -37 -19 -181 -68 -200 -68
-22 0 -76 -52 -76 -74 0 -13 -6 -29 -14 -35 -8 -7 -17 -30 -21 -51 -8 -48 -68
-144 -118 -187 -20 -17 -58 -44 -84 -60 -44 -26 -56 -28 -153 -28 -96 0 -109
2 -155 28 -27 15 -63 40 -80 54 l-30 26 -3 320 c-2 176 0 327 3 335 5 13 57
14 405 9 l400 -6 56 -27z"/>
<path d="M1377 3386 c-92 -33 -165 -106 -174 -175 -5 -37 -4 -40 23 -47 24 -6
32 -3 54 26 81 108 162 140 274 109 48 -13 129 -92 145 -142 13 -37 36 -52 64
-41 60 23 0 171 -94 230 -23 14 -59 32 -81 40 -51 18 -161 17 -211 0z"/>
<path d="M1675 2003 c-23 -22 -16 -142 10 -193 96 -187 322 -234 445 -93 35
39 36 68 4 90 -19 12 -25 10 -70 -27 -75 -62 -147 -66 -227 -13 -50 34 -86
111 -87 185 0 36 -4 50 -19 58 -27 14 -37 13 -56 -7z"/>
<path d="M1146 1695 c-40 -41 -51 -183 -21 -295 29 -115 105 -218 185 -253 58
-26 145 -26 196 -1 46 23 59 43 50 77 -9 36 -39 43 -80 18 -20 -13 -50 -21
-75 -21 -37 0 -48 6 -90 48 -88 88 -132 221 -112 337 14 77 14 71 -5 89 -19
20 -29 20 -48 1z"/>
<path d="M2070 1208 c-11 -12 -20 -28 -20 -35 0 -7 -28 -41 -62 -76 -49 -49
-74 -67 -113 -78 -64 -18 -170 -16 -218 4 -43 18 -65 13 -76 -17 -21 -55 28
-84 160 -93 159 -11 314 69 378 195 32 64 34 79 12 101 -26 26 -35 26 -61 -1z"/>
<path d="M3252 3338 c-27 -13 -39 -54 -24 -79 10 -15 6 -20 -26 -36 -44 -21
-61 -60 -44 -98 9 -18 19 -25 41 -25 41 0 181 66 181 85 0 9 5 13 10 10 23
-14 7 28 -24 62 -18 21 -31 44 -29 51 12 34 -38 52 -85 30z"/>
<path d="M2927 3322 c-35 -14 -38 -18 -35 -51 3 -32 0 -36 -29 -44 -36 -11
-36 -22 -7 -94 12 -30 15 -32 38 -23 23 9 26 7 34 -23 10 -39 32 -45 84 -21
38 17 39 19 33 54 -6 34 -4 38 24 50 17 7 31 13 31 14 0 1 -7 26 -16 55 -14
50 -16 52 -44 46 -25 -6 -29 -3 -35 24 -7 35 -20 37 -78 13z"/>
<path d="M3622 3567 c-47 -49 -14 -137 51 -137 65 0 94 98 41 139 -35 27 -65
27 -92 -2z"/>
<path d="M3782 3457 c-29 -30 -28 -69 1 -103 67 -78 170 19 106 100 -27 34
-77 36 -107 3z"/>
<path d="M3537 3433 c-9 -2 -24 -18 -33 -34 -12 -25 -13 -37 -4 -65 29 -86
140 -67 140 24 0 55 -48 90 -103 75z"/>
<path d="M3687 3312 c-9 -10 -20 -32 -23 -50 -5 -26 -1 -36 24 -62 17 -16 39
-30 49 -30 24 0 60 25 74 51 13 26 -5 85 -31 99 -29 16 -75 12 -93 -8z"/>
<path d="M3395 1693 c-11 -11 -15 -25 -11 -42 3 -14 9 -57 12 -96 7 -83 -14
-154 -70 -238 -59 -89 -137 -118 -205 -76 -45 27 -81 14 -81 -29 0 -86 178
-115 280 -46 123 83 200 315 156 467 -10 33 -24 61 -36 67 -24 13 -26 13 -45
-7z"/>
<path d="M2488 1219 c-24 -14 -23 -65 3 -114 78 -149 272 -224 472 -184 67 14
103 45 93 83 -8 33 -38 41 -78 20 -41 -21 -176 -24 -233 -5 -62 21 -117 59
-152 107 -18 24 -33 48 -33 54 0 12 -36 50 -47 50 -5 0 -16 -5 -25 -11z"/>
<path d="M2060 2656 c0 -41 -11 -56 -40 -56 -33 0 -40 -14 -40 -81 l0 -49 36
0 c35 0 36 -1 32 -37 l-3 -38 58 -3 57 -3 0 41 c0 39 1 40 34 40 32 0 34 2 40
46 11 81 10 84 -29 84 -34 0 -35 1 -35 40 l0 40 -55 0 c-52 0 -55 -2 -55 -24z"/>
<path d="M2620 1880 l0 -70 -70 0 -70 0 0 -80 0 -80 70 0 70 0 0 -64 c0 -63 0
-63 28 -61 15 1 53 3 85 3 l57 2 0 60 0 60 70 0 71 0 -3 78 -3 77 -67 3 -67 3
-3 67 -3 67 -82 3 -83 2 0 -70z"/>
</g>
</svg>
